<?xml version="1.0" encoding="utf-8"?>
<!-- Generator: Adobe Illustrator 24.0.1, SVG Export Plug-In . SVG Version: 6.00 Build 0)  -->
<svg version="1.1" id="Layer_1" xmlns="http://www.w3.org/2000/svg" xmlns:xlink="http://www.w3.org/1999/xlink" x="0px" y="0px"
	 viewBox="0 0 1920 1080" style="enable-background:new 0 0 1920 1080;" xml:space="preserve">
<style type="text/css">
	.st0{display:none;}
	.st1{display:inline;}
	.st2{fill:#0F0F0F;}
</style>
<g class="st0">
	<g class="st1">
		<g>
			<path class="st2" d="M976.05,544.56c1.35-0.87,2.54-0.63,3.57,0.71c0.95,1.27,0.79,2.26-0.48,2.97
				c-34.96,22.04-69.13,40.91-102.5,56.6c-10.46,4.91-20.49,8.24-30.08,9.99c-14.35,2.62-21.33-0.36-20.93-8.92
				c0.16-2.46,0.91-5.31,2.26-8.56c1.98-4.99,4.44-10.09,7.37-15.28c2.93-5.19,5.75-9.81,8.44-13.85c2.69-4.04,6.08-8.7,10.17-13.97
				c4.08-5.27,7.47-9.51,10.17-12.72c2.69-3.21,6.44-7.61,11.24-13.2c4.8-5.59,8.34-9.77,10.64-12.54c0.24-0.32,1.19-1.47,2.85-3.45
				c1.66-1.98,2.77-3.31,3.33-3.98c0.55-0.67,1.43-1.76,2.62-3.27c1.19-1.5,2.22-2.87,3.09-4.1c0.87-1.23,1.7-2.48,2.5-3.75
				c4.6-6.98,6.82-12.29,6.66-15.93c-0.08-1.51-0.26-2.85-0.54-4.04c-0.28-1.19-0.64-2.18-1.07-2.97c-0.44-0.79-1.03-1.49-1.78-2.08
				c-0.75-0.59-1.45-1.07-2.08-1.43c-0.64-0.36-1.49-0.59-2.56-0.71c-1.07-0.12-1.96-0.2-2.68-0.24c-0.71-0.04-1.69,0-2.91,0.12
				c-1.23,0.12-2.18,0.22-2.85,0.3c-0.67,0.08-1.63,0.22-2.85,0.42c-1.23,0.2-2.12,0.34-2.68,0.42c-9.51,1.43-18.95,3.69-28.3,6.78
				c-4.44,1.51-9.04,3.33-13.79,5.47c-0.71,0.32-1.29,0.58-1.72,0.77c-0.44,0.2-1.31,0.61-2.62,1.25c-1.31,0.64-2.4,1.25-3.27,1.84
				c-0.87,0.59-1.9,1.31-3.09,2.14c-1.19,0.83-2.06,1.65-2.62,2.44c-0.56,0.79-0.97,1.61-1.25,2.44c-0.28,0.83-0.14,1.69,0.42,2.56
				c0.55,0.87,1.5,1.66,2.85,2.38c1.27,0.71,1.51,1.71,0.71,2.97c-0.95,1.27-2.14,1.59-3.57,0.95c-2.22-1.27-3.71-2.83-4.46-4.7
				c-0.75-1.86-0.79-3.71-0.12-5.53c0.67-1.82,1.68-3.59,3.03-5.29c1.35-1.7,2.89-3.11,4.64-4.22c12.52-7.93,30-13.56,52.44-16.89
				c1.82-0.32,2.99-0.52,3.51-0.6c0.51-0.08,1.64-0.22,3.39-0.42c1.74-0.2,2.99-0.28,3.75-0.24c0.75,0.04,1.9,0.08,3.45,0.12
				c1.55,0.04,2.71,0.2,3.51,0.48c0.79,0.28,1.78,0.64,2.97,1.07c1.19,0.44,2.12,1.01,2.79,1.72c0.67,0.71,1.35,1.61,2.02,2.68
				c0.67,1.07,1.21,2.24,1.61,3.51c0.48,1.59,0.75,3.21,0.83,4.88c0.08,1.66-0.1,3.37-0.53,5.11c-0.44,1.74-0.87,3.35-1.31,4.82
				c-0.44,1.47-1.21,3.13-2.32,4.99c-1.11,1.86-2.02,3.41-2.74,4.64c-0.71,1.23-1.82,2.78-3.33,4.64c-1.51,1.86-2.6,3.23-3.27,4.1
				c-0.67,0.87-1.78,2.24-3.33,4.1c-1.55,1.86-2.52,3.03-2.91,3.51c-2.7,3.25-6.7,7.97-12.01,14.15
				c-5.31,6.18-10.03,11.79-14.15,16.83c-4.12,5.04-7.93,9.89-11.42,14.57c-6.03,8.16-11.02,15.77-14.98,22.83
				c-0.24,0.4-0.91,1.5-2.02,3.33c-1.11,1.82-2.06,3.43-2.85,4.82c-0.79,1.39-1.55,2.93-2.26,4.64c-0.71,1.7-1.07,3.07-1.07,4.1
				c0,1.5,0.14,2.81,0.42,3.92c0.28,1.11,0.61,2.06,1.01,2.85c0.4,0.79,0.99,1.43,1.78,1.9c0.79,0.48,1.47,0.87,2.02,1.19
				c0.55,0.32,1.41,0.49,2.56,0.53c1.15,0.04,2,0.06,2.56,0.06c0.55,0,1.47-0.1,2.74-0.3c1.27-0.2,2.08-0.34,2.44-0.42
				c0.36-0.08,1.17-0.28,2.44-0.59c3.57-0.79,7.29-1.86,11.18-3.21c3.88-1.35,7.43-2.72,10.64-4.1c3.21-1.39,6.88-3.11,11-5.17
				c4.12-2.06,7.57-3.83,10.35-5.29c2.77-1.47,6.32-3.39,10.64-5.77c4.32-2.38,7.67-4.2,10.05-5.47
				C934.16,569.92,955.05,557.8,976.05,544.56z"/>
			<path d="M837.69,617.75c-4.84,0-8.4-1.04-10.79-3.12c-2.35-2.05-3.45-5.01-3.27-8.81c0.17-2.71,0.98-5.8,2.41-9.24
				c1.99-5.02,4.51-10.25,7.48-15.5c2.93-5.2,5.8-9.9,8.52-13.98c2.7-4.05,6.15-8.79,10.25-14.09c4.1-5.29,7.54-9.59,10.22-12.78
				c2.67-3.18,6.45-7.62,11.25-13.22c4.77-5.56,8.34-9.77,10.62-12.52c0.04-0.06,0.34-0.46,2.86-3.46c1.66-1.97,2.76-3.3,3.32-3.97
				c0.55-0.67,1.41-1.75,2.59-3.24c1.16-1.46,2.18-2.82,3.03-4.02c0.84-1.19,1.66-2.42,2.43-3.65c5.43-8.24,6.45-12.59,6.36-14.79
				c-0.07-1.36-0.24-2.61-0.49-3.68c-0.23-1-0.53-1.83-0.88-2.46c-0.31-0.56-0.72-1.04-1.27-1.47c-0.67-0.53-1.28-0.95-1.82-1.25
				c-0.27-0.15-0.81-0.36-1.79-0.47c-1.01-0.11-1.87-0.19-2.57-0.23c-0.42-0.02-1.22-0.02-2.6,0.11c-1.21,0.12-2.15,0.22-2.82,0.29
				c-0.65,0.08-1.58,0.21-2.77,0.4c-1.25,0.2-2.15,0.34-2.71,0.42c-9.34,1.4-18.75,3.65-27.95,6.7c-4.35,1.48-8.93,3.29-13.6,5.4
				c-0.72,0.32-1.29,0.58-1.72,0.77c-0.42,0.19-1.28,0.6-2.57,1.23c-1.22,0.6-2.24,1.17-3.01,1.7c-0.87,0.59-1.89,1.3-3.07,2.13
				c-1.23,0.86-1.84,1.54-2.13,1.95c-0.44,0.63-0.77,1.28-0.99,1.92c-0.04,0.11-0.12,0.35,0.21,0.85c0.36,0.57,1.08,1.15,2.1,1.68
				c1.44,0.81,1.95,1.82,2.13,2.53c0.27,1.05,0.05,2.15-0.65,3.27l-0.1,0.14c-1.51,2.02-3.69,2.59-5.98,1.58l-0.18-0.09
				c-2.61-1.49-4.4-3.4-5.32-5.69c-0.94-2.33-0.99-4.67-0.14-6.97c0.74-2.01,1.87-3.98,3.34-5.84c1.48-1.87,3.21-3.44,5.13-4.67
				c12.71-8.04,30.62-13.82,53.22-17.18c1.79-0.31,2.97-0.51,3.5-0.59c0.53-0.08,1.69-0.22,3.47-0.43c1.87-0.21,3.2-0.29,4.07-0.25
				c0.75,0.04,1.88,0.08,3.4,0.12c1.77,0.05,3.12,0.24,4.12,0.59c0.8,0.28,1.8,0.64,3,1.08c1.48,0.54,2.68,1.29,3.56,2.23
				c0.76,0.81,1.52,1.82,2.26,2.98c0.76,1.21,1.37,2.55,1.82,3.97c0.53,1.76,0.83,3.56,0.92,5.38c0.09,1.85-0.11,3.77-0.59,5.69
				c-0.43,1.74-0.88,3.39-1.33,4.9c-0.48,1.62-1.33,3.46-2.52,5.45c-1.11,1.86-2.01,3.4-2.72,4.62c-0.77,1.32-1.91,2.92-3.5,4.89
				c-1.49,1.85-2.58,3.2-3.24,4.07c-0.69,0.89-1.82,2.29-3.37,4.16c-1.55,1.86-2.52,3.03-2.92,3.51
				c-2.68,3.23-6.61,7.87-12.03,14.17c-5.28,6.15-10.03,11.79-14.12,16.79c-4.09,5-7.91,9.87-11.36,14.5
				c-5.94,8.05-10.94,15.66-14.84,22.62c-0.27,0.45-0.95,1.56-2.06,3.39c-1.09,1.79-2.04,3.39-2.83,4.77
				c-0.75,1.31-1.47,2.8-2.15,4.42c-0.76,1.81-0.92,2.81-0.92,3.33c0,1.34,0.12,2.49,0.36,3.44c0.24,0.97,0.53,1.79,0.86,2.44
				c0.23,0.45,0.56,0.81,1.02,1.08c0.78,0.47,1.44,0.86,1.99,1.17c0.06,0.04,0.46,0.23,1.63,0.27c1.11,0.04,1.94,0.06,2.49,0.06
				c0.3,0,0.97-0.05,2.43-0.27c1.59-0.25,2.13-0.35,2.31-0.39c0.35-0.08,1.15-0.27,2.39-0.58c3.53-0.79,7.22-1.85,11-3.16
				c3.83-1.33,7.37-2.69,10.5-4.05c3.14-1.36,6.81-3.08,10.9-5.13c4.1-2.05,7.57-3.83,10.3-5.27c2.8-1.48,6.37-3.42,10.61-5.75
				c4.41-2.43,7.71-4.22,10.07-5.48c20.65-10.96,41.69-23.17,62.53-36.31c2.23-1.44,4.56-1,6.23,1.18c0.87,1.16,1.18,2.29,0.95,3.39
				c-0.15,0.72-0.63,1.75-2.03,2.54c-34.78,21.93-69.34,41.01-102.63,56.67c-10.57,4.96-20.86,8.38-30.58,10.15
				C843.44,617.43,840.37,617.75,837.69,617.75z M895.68,467.81c0.25,0,0.48,0.01,0.69,0.02c0.78,0.04,1.71,0.13,2.79,0.25
				c1.35,0.15,2.43,0.46,3.31,0.96c0.72,0.41,1.51,0.95,2.34,1.6c0.96,0.76,1.73,1.66,2.3,2.69c0.52,0.95,0.95,2.12,1.27,3.48
				c0.3,1.3,0.5,2.78,0.59,4.39c0.18,4.14-2.11,9.74-6.99,17.14c-0.79,1.26-1.65,2.55-2.54,3.8c-0.89,1.26-1.95,2.67-3.15,4.18
				c-1.2,1.52-2.08,2.62-2.64,3.3c-0.56,0.68-1.67,2.01-3.34,4c-2.21,2.63-2.69,3.23-2.79,3.37c-2.35,2.84-5.94,7.07-10.72,12.64
				c-4.79,5.58-8.57,10.02-11.22,13.18c-2.65,3.15-6.05,7.41-10.12,12.66c-4.04,5.22-7.44,9.88-10.08,13.86
				c-2.67,4-5.48,8.62-8.37,13.73c-2.88,5.09-5.32,10.15-7.25,15.03c-1.27,3.06-1.98,5.72-2.12,7.95c-0.12,2.51,0.51,4.35,1.91,5.58
				c2.65,2.32,8.42,2.75,16.66,1.25c9.38-1.71,19.34-5.01,29.59-9.83c33.15-15.59,67.56-34.59,102.29-56.48
				c-0.02-0.02-0.04-0.05-0.06-0.08c-0.24-0.31-0.42-0.42-0.46-0.43c0,0-0.13,0-0.42,0.19l-0.02,0.01
				c-20.93,13.19-42.06,25.46-62.79,36.46c-2.35,1.25-5.62,3.03-10.02,5.45c-4.26,2.35-7.85,4.29-10.67,5.78
				c-2.76,1.46-6.25,3.24-10.39,5.31c-4.16,2.08-7.89,3.83-11.1,5.22c-3.23,1.39-6.85,2.79-10.78,4.16
				c-3.93,1.36-7.77,2.46-11.4,3.27c-1.25,0.31-2.08,0.51-2.44,0.59c-0.41,0.09-1.24,0.23-2.56,0.44c-1.42,0.22-2.38,0.32-3.04,0.32
				c-0.57,0-1.45-0.02-2.62-0.06c-1.5-0.05-2.63-0.31-3.48-0.79c-0.57-0.33-1.26-0.73-2.06-1.21c-1.12-0.67-1.97-1.59-2.54-2.72
				c-0.46-0.91-0.85-2.01-1.16-3.26c-0.32-1.26-0.48-2.74-0.48-4.41c0-1.31,0.4-2.91,1.23-4.88c0.74-1.77,1.54-3.41,2.37-4.86
				c0.8-1.41,1.77-3.05,2.88-4.86c1.11-1.82,1.78-2.93,2.02-3.32c3.95-7.04,9.04-14.79,15.08-22.98c3.49-4.68,7.35-9.6,11.48-14.65
				c4.11-5.02,8.88-10.69,14.18-16.86c5.4-6.29,9.32-10.91,11.99-14.12c0.4-0.48,1.37-1.65,2.91-3.51c1.52-1.83,2.63-3.19,3.29-4.05
				c0.68-0.88,1.78-2.26,3.3-4.14c1.44-1.78,2.5-3.26,3.15-4.38c0.72-1.24,1.63-2.79,2.75-4.66c1.02-1.71,1.73-3.24,2.12-4.54
				c0.43-1.46,0.86-3.05,1.28-4.73c0.39-1.55,0.55-3.07,0.48-4.53c-0.07-1.49-0.32-2.97-0.75-4.4c-0.34-1.07-0.8-2.1-1.38-3.02
				c-0.6-0.95-1.2-1.75-1.78-2.37c-0.45-0.48-1.14-0.89-2.03-1.22c-1.18-0.43-2.16-0.78-2.95-1.06c-0.4-0.14-1.24-0.32-2.9-0.36
				c-1.57-0.04-2.74-0.08-3.5-0.12c-0.44-0.02-1.39,0-3.41,0.23c-1.71,0.19-2.81,0.33-3.32,0.41c-0.5,0.08-1.66,0.28-3.47,0.59
				c-22.1,3.28-39.48,8.86-51.71,16.6c-1.54,0.98-2.94,2.25-4.14,3.77c-1.21,1.53-2.13,3.13-2.73,4.74c-0.5,1.35-0.47,2.69,0.1,4.09
				c0.57,1.4,1.75,2.63,3.51,3.66c0.45,0.19,0.66,0.16,1.01-0.29c0.01-0.02,0.02-0.04,0.03-0.06c-0.02-0.01-0.05-0.03-0.07-0.04
				c-1.63-0.86-2.81-1.87-3.56-3.05c-1.11-1.74-0.95-3.28-0.62-4.26c0.33-1.01,0.84-2,1.51-2.95c0.7-1,1.71-1.95,3.11-2.93
				c1.2-0.84,2.23-1.56,3.11-2.15c0.95-0.65,2.1-1.3,3.52-1.99c1.33-0.65,2.22-1.07,2.66-1.27c0.44-0.2,1.02-0.46,1.74-0.78
				c4.78-2.15,9.48-4.01,13.96-5.54c9.43-3.12,19.06-5.42,28.65-6.86c0.56-0.08,1.44-0.22,2.65-0.41c1.27-0.2,2.24-0.35,2.94-0.43
				c0.69-0.08,1.65-0.18,2.9-0.3C894.15,467.85,894.98,467.81,895.68,467.81z M978.36,546.37L978.36,546.37
				C978.36,546.37,978.36,546.37,978.36,546.37z M830.75,500.73L830.75,500.73L830.75,500.73z"/>
		</g>
		<g>
			<path class="st2" d="M981.05,532.31c0.4-0.87,1.03-1.35,1.9-1.43c0.87-0.08,1.61,0.2,2.2,0.83c0.59,0.64,0.73,1.43,0.42,2.38
				c-4.04,10.15-5.99,20.45-5.83,30.92c0,1.35-0.68,2.02-2.02,2.02c-1.43,0-2.3-0.63-2.62-1.9c-0.08-0.24-0.12-0.48-0.12-0.71
				C974.82,553.71,976.85,543.01,981.05,532.31z M989.01,518.63c0.55,1.35,0.16,2.42-1.19,3.21l-8.44,4.99
				c-0.56,0.32-1.15,0.34-1.78,0.06c-0.63-0.28-1.07-0.69-1.31-1.25c-0.55-1.27-0.16-2.34,1.19-3.21l8.44-4.99
				c0.55-0.32,1.15-0.34,1.78-0.06C988.34,517.66,988.78,518.08,989.01,518.63z"/>
			<path d="M977.72,569.03c-2.33,0-3.98-1.22-4.54-3.35c-0.13-0.42-0.2-0.84-0.2-1.27c-0.16-10.88,1.92-21.94,6.2-32.84l0.04-0.09
				c0.69-1.53,1.95-2.45,3.54-2.59c1.5-0.13,2.82,0.37,3.84,1.46c1.1,1.18,1.4,2.73,0.86,4.38l-0.04,0.11
				c-3.93,9.85-5.84,20-5.69,30.15C981.74,567.45,980.16,569.03,977.72,569.03z M977.72,565.26L977.72,565.26L977.72,565.26z
				 M982.89,533.09c-4.07,10.39-6.06,20.92-5.91,31.29l0.06,0.26c0.08,0.31,0.12,0.38,0.7,0.39c0-0.01,0-0.01,0-0.02
				c-0.16-10.63,1.84-21.26,5.94-31.59c0.06-0.2,0.05-0.29,0.05-0.29c-0.21-0.23-0.34-0.28-0.6-0.25
				C983.03,532.88,982.99,532.89,982.89,533.09z M978.45,529.09c-0.55,0-1.11-0.12-1.66-0.36c-1.1-0.48-1.91-1.27-2.34-2.29
				c-0.94-2.15-0.22-4.28,1.94-5.67l8.51-5.04c1.13-0.64,2.4-0.7,3.6-0.17c1.1,0.48,1.91,1.27,2.35,2.29l0.01,0.03
				c0.93,2.27,0.17,4.4-2.03,5.69l-8.44,4.99C979.78,528.91,979.12,529.09,978.45,529.09z M978.05,524.59c0,0,0,0.08,0.08,0.26
				c0.02,0.04,0.05,0.12,0.28,0.22l8.41-4.94c0.32-0.19,0.44-0.33,0.45-0.37l0,0c0,0,0.01-0.1-0.08-0.34
				c-0.02-0.04-0.07-0.11-0.27-0.2l-8.4,4.94C978.19,524.36,978.06,524.55,978.05,524.59L978.05,524.59z"/>
		</g>
		<g>
			<path class="st2" d="M1005.66,533.97c3.72,0.95,6.34,3.23,7.85,6.84c1.5,3.61,1.58,7.23,0.24,10.88
				c-1.19,3.49-2.97,6.7-5.35,9.63c-2.38,2.93-5.07,4.48-8.09,4.64c-3.09,0.16-5.33-0.91-6.72-3.21c-1.39-2.3-1.8-4.95-1.25-7.97
				c1.11-6.18,4.32-12.37,9.63-18.55c0.16-0.16,0.36-0.32,0.59-0.48C1003.12,534.25,1004.16,533.66,1005.66,533.97z M997.81,560.49
				c1.51,1.35,3.76,0.44,6.78-2.73c3.49-3.65,5.35-7.45,5.59-11.42c0.24-3.41-1.23-5.83-4.4-7.25c-0.64,0.71-1.31,1.57-2.02,2.56
				c-0.71,0.99-1.55,2.2-2.5,3.63c-0.95,1.43-1.78,2.85-2.5,4.28c-0.71,1.43-1.31,2.83-1.78,4.22c-0.48,1.39-0.65,2.68-0.54,3.86
				C996.57,558.82,997.02,559.78,997.81,560.49z"/>
			<path d="M999.73,567.97c-4.38,0-6.67-2.25-7.85-4.19c-1.64-2.72-2.15-5.87-1.5-9.36c1.17-6.5,4.56-13.06,10.08-19.49l0.1-0.11
				c0.12-0.12,0.25-0.23,0.38-0.35c0.99-2.02,2.87-2.93,5.13-2.46l0.08,0.02c4.35,1.11,7.44,3.8,9.2,8
				c1.7,4.07,1.79,8.23,0.27,12.34c-1.24,3.65-3.16,7.1-5.67,10.2c-2.74,3.38-5.95,5.19-9.53,5.37
				C1000.18,567.97,999.95,567.97,999.73,567.97z M1003.43,537.61c-5.01,5.86-8.08,11.75-9.12,17.53c-0.47,2.55-0.14,4.7,0.99,6.58
				c0.63,1.04,1.82,2.41,4.9,2.25c2.44-0.13,4.61-1.4,6.63-3.9c2.22-2.73,3.9-5.77,5.01-9.02c1.19-3.23,1.12-6.31-0.19-9.46
				c-1.26-3.01-3.37-4.86-6.46-5.66c-0.43-0.09-0.53-0.09-0.76,0.53l-0.22,0.61l-0.54,0.36
				C1003.56,537.5,1003.48,537.57,1003.43,537.61z M999.31,563.1c-1.2,0-2.13-0.49-2.83-1.12l0,0c-1.17-1.05-1.85-2.45-2.02-4.14
				c-0.15-1.47,0.07-3.06,0.63-4.71c0.5-1.46,1.14-2.97,1.89-4.47c0.75-1.5,1.63-3.01,2.62-4.5c0.94-1.41,1.79-2.65,2.54-3.68
				c0.76-1.05,1.48-1.96,2.15-2.72l0.98-1.1l1.34,0.6c3.94,1.77,5.87,4.96,5.57,9.22c-0.26,4.41-2.33,8.68-6.14,12.66
				C1003.21,562.12,1000.99,563.1,999.31,563.1z M999.15,559c0.31,0.28,1.67-0.18,3.99-2.62c3.14-3.28,4.83-6.7,5.04-10.16
				c0.14-2.07-0.46-3.52-1.93-4.58c-0.28,0.36-0.58,0.75-0.88,1.17c-0.71,0.99-1.54,2.19-2.45,3.57c-0.9,1.35-1.7,2.72-2.37,4.07
				c-0.67,1.34-1.24,2.68-1.68,3.98c-0.38,1.11-0.53,2.12-0.44,3.02C998.53,558.34,998.89,558.76,999.15,559z"/>
		</g>
		<g>
			<path class="st2" d="M1101.26,535.04c0.63-0.71,1.41-0.99,2.32-0.83c0.91,0.16,1.55,0.61,1.9,1.37c0.36,0.75,0.26,1.53-0.3,2.32
				c-1.98,2.46-4.32,4.99-7.02,7.61c-2.7,2.62-5.87,5.21-9.51,7.79c-3.65,2.58-7.21,4.6-10.7,6.06c-3.49,1.47-7.06,2.02-10.7,1.66
				c-3.65-0.36-6.78-1.92-9.39-4.7c-1.43-1.58-3.35-3.92-5.77-7.02c-2.42-3.09-4.18-5.27-5.29-6.54c-0.71-0.71-1.39-1.29-2.02-1.72
				c-0.64-0.43-1.19-0.73-1.66-0.89c-0.48-0.16-0.99-0.12-1.55,0.12c-0.56,0.24-1.01,0.46-1.37,0.65c-0.36,0.2-0.81,0.61-1.37,1.25
				c-0.56,0.64-0.95,1.15-1.19,1.55c-0.24,0.4-0.68,1.05-1.31,1.96c-0.64,0.91-1.07,1.53-1.31,1.84c-0.4,0.64-1.45,2.64-3.15,6
				c-1.71,3.37-3.45,6.22-5.23,8.56c-1.78,2.34-3.47,3.63-5.05,3.86c-0.95,0.16-1.7-0.12-2.26-0.83c-0.55-0.79-0.97-1.64-1.25-2.56
				c-0.28-0.91-0.38-2.02-0.3-3.33c0.08-1.31,0.16-2.32,0.24-3.03c0.08-0.71,0.28-1.86,0.59-3.45c0.32-1.58,0.52-2.5,0.59-2.74
				c0.48-3.01,1.39-7.31,2.74-12.9c1.35-5.59,2.14-8.94,2.38-10.05c0.24-0.87,0.79-1.47,1.66-1.78c0.87-0.32,1.66-0.24,2.38,0.24
				c0.71,0.48,0.95,1.19,0.71,2.14c-0.4,1.74-1.07,4.62-2.02,8.62c-0.95,4-1.66,7.07-2.14,9.22c-0.95,4.68-1.55,7.93-1.78,9.75
				c0,0.24,0,0.59,0,1.07c0.63-1.19,1.45-2.46,2.44-3.8c0.99-1.35,2.04-2.77,3.15-4.28c1.11-1.5,1.9-2.65,2.38-3.45
				c0.24-0.32,0.57-0.79,1.01-1.43c0.44-0.63,0.81-1.19,1.13-1.66c0.32-0.48,0.69-1.01,1.13-1.61c0.44-0.59,0.85-1.13,1.25-1.61
				c0.4-0.48,0.83-0.95,1.31-1.43c0.48-0.48,0.97-0.91,1.49-1.31c0.52-0.4,1.01-0.71,1.49-0.95c1.27-0.32,2.38-0.48,3.33-0.48
				s1.98,0.36,3.09,1.07c1.11,0.71,2.08,1.47,2.91,2.26c0.83,0.79,1.74,1.78,2.73,2.97c0.99,1.19,1.82,2.28,2.5,3.27
				c0.67,0.99,1.39,2.04,2.14,3.15c0.75,1.11,1.41,1.98,1.96,2.62c2.77,3.41,5.27,5.41,7.49,6.01c2.22,0.59,5.39,0.14,9.51-1.37
				C1085.25,550.74,1093.81,544.32,1101.26,535.04z"/>
			<path d="M1021.08,568.01c-1.32,0-2.48-0.57-3.33-1.65l-0.06-0.08c-0.67-0.96-1.18-2.01-1.52-3.12c-0.34-1.13-0.47-2.49-0.38-4.03
				c0.08-1.32,0.16-2.38,0.25-3.13c0.09-0.78,0.29-1.96,0.62-3.62c0.38-1.88,0.53-2.52,0.6-2.79c0.49-3.04,1.41-7.39,2.75-12.93
				c1.66-6.88,2.2-9.23,2.37-10l0.03-0.1c0.41-1.51,1.42-2.59,2.91-3.14c1.48-0.54,2.92-0.38,4.17,0.45
				c1.43,0.95,1.99,2.52,1.54,4.29c-0.39,1.71-1.06,4.59-2.02,8.6c-0.94,3.95-1.66,7.04-2.13,9.19c-0.14,0.69-0.27,1.35-0.4,1.99
				l0.64-0.87c1.07-1.45,1.84-2.56,2.27-3.29l0.12-0.18c0.23-0.3,0.54-0.75,0.96-1.36c0.43-0.62,0.8-1.17,1.11-1.64
				c0.33-0.5,0.72-1.06,1.18-1.68c0.46-0.63,0.91-1.21,1.33-1.71c0.42-0.51,0.91-1.04,1.43-1.56c0.53-0.53,1.09-1.02,1.68-1.48
				c0.62-0.48,1.23-0.87,1.82-1.16l0.41-0.15c1.45-0.36,2.69-0.54,3.81-0.54c1.34,0,2.74,0.47,4.17,1.39
				c1.21,0.78,2.29,1.61,3.21,2.49c0.88,0.84,1.85,1.9,2.89,3.14c1.03,1.23,1.91,2.39,2.62,3.43l2.14,3.15
				c0.7,1.04,1.31,1.85,1.81,2.42c3.15,3.87,5.27,5.06,6.51,5.39c1.24,0.33,3.69,0.37,8.31-1.31c9.27-3.42,17.62-9.69,24.81-18.64
				l0.06-0.08c1.09-1.23,2.56-1.75,4.16-1.48c1.57,0.28,2.73,1.13,3.37,2.48c0.67,1.41,0.5,2.94-0.47,4.32l-0.08,0.11
				c-2.02,2.5-4.44,5.13-7.18,7.79c-2.76,2.68-6.04,5.36-9.75,7.99c-3.74,2.65-7.47,4.76-11.08,6.27c-3.78,1.59-7.71,2.2-11.67,1.81
				c-4.12-0.4-7.71-2.19-10.65-5.32c-1.49-1.65-3.46-4.05-5.89-7.16c-2.35-3-4.09-5.16-5.18-6.4c-0.61-0.6-1.18-1.09-1.7-1.44
				c-0.58-0.4-0.94-0.57-1.15-0.64c0,0.01-0.05,0.02-0.13,0.05c-0.49,0.21-0.88,0.4-1.19,0.57c0,0-0.26,0.16-0.83,0.81
				c-0.59,0.68-0.86,1.06-0.98,1.26c-0.26,0.44-0.71,1.12-1.38,2.07c-0.61,0.87-1.04,1.48-1.29,1.83c-0.28,0.47-1.04,1.87-3.02,5.78
				c-1.75,3.47-3.58,6.45-5.43,8.87c-2.13,2.79-4.21,4.31-6.35,4.63C1021.62,567.98,1021.35,568.01,1021.08,568.01z M1020.94,563.94
				c0.05,0.06,0.08,0.08,0.2,0.07l0.02-9.01c0.25-1.87,0.85-5.2,1.81-9.89c0.49-2.2,1.21-5.31,2.15-9.28
				c0.95-3.99,1.62-6.86,2.02-8.6c0.01-0.04,0.02-0.07,0.02-0.09c-0.1-0.04-0.23-0.05-0.48,0.04c-0.27,0.1-0.35,0.2-0.4,0.39
				c-0.26,1.21-1.06,4.58-2.38,10.03c-1.33,5.51-2.24,9.8-2.7,12.75l-0.07,0.31c-0.01,0.04-0.12,0.45-0.54,2.51
				c-0.3,1.52-0.5,2.63-0.57,3.28c-0.08,0.69-0.15,1.67-0.23,2.93c-0.06,1.06,0.01,1.95,0.22,2.63
				C1020.21,562.67,1020.53,563.33,1020.94,563.94z M1032.77,545.91c-0.51,0.84-1.31,1.99-2.43,3.52l-3.11,4.23
				c-0.97,1.32-1.74,2.52-2.32,3.61l-3.58,6.71c0.65-0.12,1.89-0.69,3.73-3.09c1.7-2.23,3.39-5,5.04-8.25
				c2.33-4.6,2.96-5.72,3.24-6.16l0.1-0.14c0.23-0.3,0.65-0.9,1.26-1.78c0.76-1.08,1.09-1.6,1.24-1.85c0.31-0.51,0.76-1.11,1.4-1.83
				c0.72-0.82,1.32-1.36,1.9-1.68c0.42-0.24,0.95-0.49,1.55-0.75c1-0.43,2.02-0.49,2.96-0.18c0.66,0.22,1.37,0.59,2.16,1.14
				c0.74,0.51,1.51,1.17,2.31,1.96l0.09,0.1c1.13,1.29,2.93,3.52,5.36,6.62c2.38,3.04,4.29,5.36,5.68,6.91
				c2.26,2.4,4.92,3.73,8.1,4.04c3.29,0.32,6.57-0.19,9.73-1.52c3.34-1.4,6.82-3.37,10.32-5.85c3.54-2.5,6.67-5.06,9.28-7.59
				c2.6-2.53,4.89-5.01,6.8-7.37c0.1-0.16,0.11-0.23,0.11-0.24c-0.06-0.13-0.11-0.23-0.46-0.29c-0.19-0.03-0.27-0.03-0.45,0.16
				c-7.64,9.5-16.56,16.17-26.51,19.84c-4.56,1.67-8.07,2.13-10.72,1.42c-2.66-0.71-5.45-2.9-8.53-6.68
				c-0.57-0.65-1.26-1.57-2.07-2.75l-2.14-3.15c-0.63-0.93-1.43-1.98-2.38-3.11c-0.94-1.13-1.81-2.07-2.58-2.81
				c-0.74-0.7-1.62-1.38-2.61-2.02c-0.78-0.5-1.45-0.75-2.01-0.75c-0.73,0-1.61,0.12-2.62,0.36c-0.31,0.17-0.63,0.39-0.98,0.65
				c-0.45,0.34-0.88,0.73-1.29,1.14c-0.44,0.44-0.84,0.87-1.19,1.29c-0.38,0.45-0.77,0.95-1.17,1.51c-0.42,0.57-0.78,1.08-1.08,1.53
				c-0.32,0.48-0.71,1.05-1.15,1.69C1033.35,545.11,1033.01,545.58,1032.77,545.91z"/>
		</g>
		<g>
			<path class="st2" d="M1148.23,534.69c0.71-0.71,1.47-0.89,2.26-0.53c0.79,0.36,1.29,0.95,1.49,1.78c0.2,0.83-0.02,1.65-0.65,2.44
				c-16.33,16.73-30.44,23.66-42.33,20.81c-4.2-0.95-7.37-2.79-9.51-5.53c-2.14-2.74-2.99-5.79-2.56-9.16c0.44-3.37,2-6.6,4.7-9.69
				c2.14-2.3,4.91-4.16,8.32-5.59c5.07-2.06,7.57-0.79,7.49,3.8c0,0.08,0,0.16,0,0.24c-0.08,3.09-1.94,6.03-5.59,8.8
				c-3.65,2.78-6.94,3.69-9.87,2.74c-0.32,3.57,1.19,6.22,4.52,7.97c3.33,1.74,6.97,2.26,10.94,1.55c5.63-1.03,10.88-3.23,15.76-6.6
				C1138.07,544.34,1143.08,540,1148.23,534.69z M1110.54,533.97c-1.11,0.08-2.32,0.75-3.63,2.02c-1.31,1.27-2.44,2.66-3.39,4.16
				c1.66,0.79,3.69-0.16,6.06-2.85c1.58-1.82,2.02-2.93,1.31-3.33C1110.82,533.97,1110.7,533.97,1110.54,533.97z"/>
			<path d="M1114.26,561.79c-1.96,0-3.87-0.22-5.73-0.67c-4.62-1.04-8.2-3.15-10.62-6.24c-2.47-3.16-3.47-6.74-2.96-10.64
				c0.49-3.75,2.22-7.37,5.17-10.75c2.37-2.55,5.4-4.59,9.06-6.12c3.47-1.41,6.05-1.48,7.89-0.21c1.62,1.11,2.42,3.1,2.37,5.9v0.2
				c-0.1,3.77-2.24,7.24-6.38,10.39c-3.14,2.39-6.17,3.56-8.96,3.51c0.39,1.62,1.48,2.87,3.32,3.83c2.95,1.54,6.11,1.99,9.66,1.35
				c5.32-0.97,10.36-3.08,14.97-6.28c4.74-3.28,9.7-7.57,14.75-12.77l0.02-0.02c1.3-1.3,2.94-1.64,4.49-0.94
				c1.36,0.62,2.27,1.7,2.61,3.14c0.24,1.01,0.25,2.54-1.04,4.15l-0.13,0.15C1138.46,554.41,1125.54,561.79,1114.26,561.79z
				 M1113.92,530.26c-0.71,0-1.77,0.22-3.22,0.81c-3.11,1.3-5.68,3.02-7.61,5.1c-2.38,2.73-3.79,5.63-4.18,8.58
				c-0.37,2.84,0.33,5.35,2.15,7.67c1.87,2.38,4.61,3.96,8.38,4.81c11.11,2.66,24.69-4.12,40.38-20.18
				c0.28-0.38,0.24-0.57,0.22-0.66c-0.04-0.18-0.1-0.28-0.29-0.38c-0.02,0.02-0.05,0.05-0.09,0.08
				c-5.22,5.38-10.38,9.84-15.33,13.26c-5.08,3.52-10.65,5.84-16.53,6.92c-4.4,0.79-8.51,0.21-12.23-1.74
				c-4.04-2.12-5.97-5.54-5.58-9.92l0.22-2.5l2.39,0.77c2.26,0.73,4.96-0.08,8.04-2.42c3.12-2.38,4.74-4.82,4.8-7.26l0-0.19
				c0.02-1.33-0.21-2.28-0.63-2.56C1114.63,530.34,1114.34,530.26,1113.92,530.26z M1104.72,542.44c-0.7,0-1.39-0.16-2.06-0.48
				l-2.03-0.97l1.2-1.9c1.03-1.63,2.27-3.16,3.69-4.53c1.67-1.62,3.27-2.47,4.88-2.58l1.02,0l0.45,0.25
				c0.71,0.4,1.18,1.05,1.32,1.84c0.22,1.27-0.38,2.59-2.09,4.55C1108.85,541.16,1106.72,542.44,1104.72,542.44z"/>
		</g>
	</g>
	<g class="st1">
		<g>
			<path class="st2" d="M994.38,601.72c-2.4,2.37-5.5,3.47-8.86,3.47c-8.66,0-12.33-5.96-12.36-12.03
				c-0.03-6.1,3.93-12.3,12.36-12.3c3.17,0,6.16,1.2,8.56,3.57l-2.93,2.83c-1.53-1.5-3.6-2.2-5.63-2.2c-5.63,0-8.06,4.2-8.03,8.1
				c0.03,3.87,2.27,7.9,8.03,7.9c2.03,0,4.33-0.83,5.86-2.37L994.38,601.72z"/>
			<path d="M985.51,607.18c-9.87,0-14.32-7.04-14.36-14.02c-0.02-3.96,1.45-7.73,4.03-10.33c2.59-2.6,6.16-3.98,10.33-3.98
				c3.77,0,7.22,1.43,9.97,4.14l1.46,1.44l-5.8,5.61l-1.39-1.36c-1.07-1.05-2.58-1.63-4.23-1.63c-1.84,0-3.3,0.54-4.35,1.6
				c-1.08,1.09-1.69,2.72-1.68,4.48c0.02,1.78,0.63,5.91,6.03,5.91c1.62,0,3.37-0.7,4.45-1.78l1.42-1.42l5.82,5.89l-1.43,1.41
				C993.1,605.79,989.55,607.18,985.51,607.18z M985.51,582.86c-3.13,0-5.65,0.94-7.49,2.8c-1.84,1.85-2.88,4.58-2.87,7.49
				c0.03,4.85,2.76,10.04,10.36,10.04c2.25,0,4.23-0.55,5.89-1.63l-0.19-0.2c-1.67,1.07-3.72,1.69-5.7,1.69
				c-6.87,0-9.99-4.96-10.03-9.88c-0.02-2.82,1.01-5.49,2.83-7.33c1.8-1.82,4.29-2.78,7.2-2.78c2.01,0,3.9,0.54,5.49,1.55l0.07-0.07
				C989.42,583.43,987.53,582.86,985.51,582.86z"/>
		</g>
		<g>
			<path class="st2" d="M1014.22,581.32v19.26h12v4.07h-16.39v-23.33H1014.22z"/>
			<path d="M1028.22,606.65h-20.39v-27.33h8.4v19.26h12V606.65z M1011.82,602.65h12.39v-0.06h-12v-19.26h-0.4V602.65z"/>
		</g>
		<g>
			<path class="st2" d="M1042.67,604.65v-23.33h4.36v23.33H1042.67z"/>
			<path d="M1049.03,606.65h-8.37v-27.33h8.37V606.65z M1044.67,602.65h0.37v-19.33h-0.37V602.65z"/>
		</g>
		<g>
			<path class="st2" d="M1079.81,581.29h4.4v23.36l-2.73,0.03l0,0l-12.26-15.76v15.73h-4.4v-23.33h3.57l11.43,14.46V581.29z"/>
			<path d="M1080.51,606.7l-9.29-11.95v11.9h-8.4v-27.33h6.53l8.46,10.71v-10.74h8.4v27.33L1080.51,606.7z M1066.82,602.65h0.4
				v-19.33h-0.4V602.65z M1067.4,583.32l14.82,19.04v-19.08h-0.4v18.25L1067.4,583.32z"/>
		</g>
		<g>
			<path class="st2" d="M1101.59,604.65v-23.33h4.37v23.33H1101.59z"/>
			<path d="M1107.96,606.65h-8.37v-27.33h8.37V606.65z M1103.59,602.65h0.37v-19.33h-0.37V602.65z"/>
		</g>
		<g>
			<path class="st2" d="M1143.97,601.72c-2.4,2.37-5.5,3.47-8.87,3.47c-8.66,0-12.33-5.96-12.36-12.03
				c-0.03-6.1,3.93-12.3,12.36-12.3c3.17,0,6.17,1.2,8.56,3.57l-2.93,2.83c-1.53-1.5-3.6-2.2-5.63-2.2c-5.63,0-8.06,4.2-8.03,8.1
				c0.03,3.87,2.26,7.9,8.03,7.9c2.03,0,4.33-0.83,5.87-2.37L1143.97,601.72z"/>
			<path d="M1135.11,607.18c-9.87,0-14.32-7.04-14.36-14.02c-0.02-3.96,1.45-7.73,4.03-10.33c2.59-2.6,6.16-3.98,10.33-3.98
				c3.77,0,7.22,1.43,9.97,4.14l1.46,1.44l-5.8,5.61l-1.39-1.36c-1.07-1.05-2.58-1.63-4.23-1.63c-1.84,0-3.3,0.54-4.35,1.6
				c-1.08,1.09-1.69,2.72-1.67,4.48c0.01,1.78,0.63,5.91,6.03,5.91c1.62,0,3.37-0.7,4.45-1.78l1.42-1.42l5.82,5.89l-1.43,1.41
				C1142.69,605.79,1139.14,607.18,1135.11,607.18z M1135.11,582.86c-3.13,0-5.65,0.94-7.49,2.8c-1.84,1.85-2.88,4.58-2.87,7.49
				c0.03,4.85,2.76,10.04,10.36,10.04c2.25,0,4.22-0.55,5.89-1.63l-0.19-0.2c-1.67,1.07-3.72,1.69-5.7,1.69
				c-6.87,0-9.99-4.96-10.03-9.88c-0.02-2.82,1.01-5.49,2.83-7.33c1.8-1.82,4.29-2.78,7.2-2.78c2.01,0,3.9,0.54,5.49,1.55l0.07-0.07
				C1139.02,583.43,1137.13,582.86,1135.11,582.86z"/>
		</g>
	</g>
	<g class="st1">
		<path class="st2" d="M1108.02,670.3c-6.54,7.59-13.69,14.66-21.3,21.25c-7.7,6.49-15.93,12.34-24.52,17.66
			c-8.62,5.29-17.75,9.71-27.11,13.61l-7.1,2.73c-2.38,0.89-4.81,1.6-7.22,2.41l-3.63,1.17l-3.68,0.99l-3.68,0.99
			c-1.23,0.32-2.45,0.69-3.7,0.92l-7.47,1.56c-1.24,0.28-2.5,0.46-3.76,0.65l-3.78,0.57l-3.78,0.57c-1.26,0.18-2.53,0.26-3.8,0.4
			c-2.54,0.24-5.07,0.52-7.61,0.72c-10.18,0.62-20.41,0.56-30.61-0.23c-10.19-0.91-20.31-2.64-30.27-5.08
			c-9.96-2.46-19.68-5.84-29.15-9.81c-9.49-3.95-18.59-8.8-27.32-14.24c-8.72-5.46-17.04-11.58-24.76-18.41
			c-7.74-6.8-14.99-14.16-21.65-22.03c-6.59-7.94-12.6-16.35-17.96-25.18c-5.44-8.79-9.89-18.16-13.78-27.72l-1.43-3.6l-0.71-1.8
			l-0.63-1.83l-2.5-7.34l-2.14-7.45l-0.53-1.86l-0.45-1.89l-0.88-3.78c-2.29-10.08-3.92-20.32-4.55-30.65
			c-0.66-10.31-0.76-20.68,0.21-30.98c0.14-2.58,0.5-5.15,0.84-7.71c0.35-2.56,0.6-5.14,1.12-7.68l1.39-7.63l1.76-7.56
			c2.55-10.02,5.8-19.87,9.8-29.4c4.09-9.5,8.87-18.69,14.3-27.48l4.2-6.51l4.5-6.31l1.13-1.57l1.2-1.52l2.4-3.04l2.42-3.02
			l2.56-2.91c3.34-3.94,6.98-7.61,10.58-11.3l5.64-5.3c0.92-0.9,1.91-1.73,2.89-2.57l2.94-2.51c7.92-6.6,16.26-12.71,25.1-18.02
			c8.84-5.29,18.05-9.95,27.57-13.87c9.55-3.86,19.41-6.87,29.41-9.23c9.99-2.41,20.2-3.77,30.42-4.54
			c2.56-0.14,5.11-0.39,7.67-0.43l7.68-0.1c1.28-0.05,2.56,0.05,3.84,0.1l3.83,0.19l3.83,0.19c1.28,0.09,2.56,0.07,3.83,0.26
			c20.37,1.87,40.41,6.84,59.18,14.69c2.33,1.01,4.62,2.14,6.92,3.21c2.29,1.11,4.63,2.09,6.83,3.38l6.68,3.67l1.67,0.92
			c0.55,0.31,1.08,0.67,1.62,1l3.22,2.03c2.13,1.38,4.31,2.67,6.39,4.11l6.16,4.45c1.02,0.75,2.06,1.47,3.07,2.23l2.93,2.42
			l5.83,4.84c7.46,6.81,14.71,13.86,21.04,21.7c6.53,7.66,12.12,16.05,17.36,24.57c-5.88-8.1-11.88-16.12-18.84-23.27l-2.54-2.73
			l-1.27-1.37l-1.35-1.29l-5.4-5.14c-1.75-1.76-3.7-3.31-5.59-4.92c-1.91-1.59-3.78-3.22-5.71-4.77
			c-15.66-12.16-32.96-22.13-51.39-29.1c-18.44-6.9-37.85-11.01-57.4-12.11c-1.22-0.14-2.45-0.08-3.67-0.12l-3.67-0.05l-3.67-0.06
			c-1.22-0.02-2.44-0.08-3.67,0l-7.33,0.28c-2.44,0.1-4.87,0.4-7.3,0.59c-9.71,0.98-19.38,2.52-28.79,5.04
			c-9.42,2.48-18.68,5.56-27.6,9.43c-8.91,3.89-17.55,8.38-25.81,13.5c-8.25,5.13-16.02,11-23.37,17.33l-2.73,2.4
			c-0.91,0.8-1.83,1.59-2.69,2.45l-5.23,5.06c-3.33,3.52-6.7,7.01-9.77,10.76c-6.2,7.44-12.07,15.18-17.07,23.48
			c-5.05,8.26-9.48,16.89-13.27,25.8c-3.7,8.94-6.69,18.17-9.03,27.55l-1.61,7.07l-1.26,7.14c-0.48,2.37-0.69,4.79-1.01,7.18
			l-0.45,3.6c-0.17,1.2-0.2,2.41-0.31,3.61c-0.96,9.63-0.91,19.35-0.34,29c0.53,9.67,2.02,19.26,4.12,28.7l0.81,3.54l0.41,1.77
			l0.49,1.75l1.96,6.99l2.31,6.88l0.58,1.72l0.66,1.69l1.32,3.38l1.32,3.38l1.48,3.32l1.49,3.31l0.74,1.66
			c0.26,0.55,0.55,1.08,0.82,1.62l3.28,6.48l3.57,6.33c4.91,8.35,10.43,16.35,16.52,23.91c6.16,7.5,12.89,14.54,20.08,21.06
			c7.17,6.57,14.97,12.41,23.09,17.77c8.12,5.35,16.62,10.16,25.52,14.13c35.45,16.21,76.17,21.11,114.86,13.67
			c1.22-0.17,2.41-0.48,3.62-0.73l3.61-0.8l3.61-0.8l3.56-0.98c2.37-0.68,4.77-1.26,7.12-2.03l7.02-2.35
			c9.28-3.38,18.37-7.34,27.12-12.03c8.7-4.75,17.11-10.09,25.08-16.08C1093.44,684.01,1100.93,677.38,1108.02,670.3z"/>
	</g>
</g>
<g>
	<g>
		<path class="st2" d="M1008.29,689c-85.31,0-154.71-69.4-154.71-154.71s69.4-154.71,154.71-154.71S1163,448.98,1163,534.29
			S1093.6,689,1008.29,689z M1008.29,391.95c-78.48,0-142.34,63.85-142.34,142.34s63.85,142.34,142.34,142.34
			s142.34-63.85,142.34-142.34S1086.77,391.95,1008.29,391.95z"/>
	</g>
	<g>
		<g>
			<g>
				<polygon class="st2" points="1009.58,589.64 1001.69,580.1 1058.49,533.13 1001.69,486.15 1009.58,476.61 1077.91,533.13 				
					"/>
			</g>
		</g>
		<g>
			<g>
				<rect x="938.66" y="526.94" class="st2" width="129.54" height="12.38"/>
			</g>
		</g>
	</g>
</g>
</svg>
